<svg width="23" height="31" viewBox="0 0 23 31" fill="none" xmlns="http://www.w3.org/2000/svg">
<path fill-rule="evenodd" clip-rule="evenodd" d="M11.8602 3.91667C11.6544 2.58692 11.1799 1.65356 10.5487 1.07583C9.8727 0.457067 9.04779 0.275999 8.28472 0.428994C6.77562 0.731569 5.52763 2.33583 6.05111 4.30378C6.44977 5.8025 7.43812 7.09109 8.48285 8.08426C9.52989 9.07963 10.6613 9.8046 11.3938 10.1718L11.4673 10.2086H11.5493C11.6872 10.2086 11.7905 10.1448 11.8602 10.0773C11.93 10.1448 12.0332 10.2086 12.1711 10.2086H12.2532L12.3266 10.1718C13.0592 9.8046 14.1905 9.07963 15.2376 8.08426C16.2823 7.09109 17.2707 5.8025 17.6693 4.30378C18.1928 2.33583 16.9448 0.731569 15.4357 0.428994C14.6726 0.275999 13.8477 0.457067 13.1717 1.07583C12.5406 1.65356 12.066 2.58692 11.8602 3.91667Z" fill="#53D28E"/>
<path d="M11.5 7.42322C5.175 7.42322 0 12.6319 0 18.9981C0 25.3643 5.175 30.573 11.5 30.573C17.825 30.573 23 25.3643 23 18.9981C23 12.6319 17.825 7.42322 11.5 7.42322ZM11.5 24.9013C8.28 24.9013 5.635 22.2391 5.635 18.9981C5.635 18.4193 6.21 17.8406 6.785 17.8406C7.475 17.8406 7.935 18.4193 7.935 18.9981C7.935 20.9658 9.545 22.5863 11.5 22.5863C13.455 22.5863 15.065 20.9658 15.065 18.9981C15.065 18.4193 15.525 17.8406 16.215 17.8406C16.79 17.8406 17.365 18.4193 17.365 18.9981C17.365 22.2391 14.72 24.9013 11.5 24.9013Z" fill="#FF927A"/>
<path d="M11.5 24.9013C8.28 24.9013 5.635 22.2391 5.635 18.9981C5.635 18.4193 6.21 17.8406 6.785 17.8406C7.475 17.8406 7.935 18.4193 7.935 18.9981C7.935 20.9658 9.545 22.5863 11.5 22.5863C13.455 22.5863 15.065 20.9658 15.065 18.9981C15.065 18.4193 15.525 17.8406 16.215 17.8406C16.79 17.8406 17.365 18.4193 17.365 18.9981C17.365 22.2391 14.72 24.9013 11.5 24.9013Z" fill="#FF927A"/>
<circle cx="11.5" cy="18.5" r="8.5" fill="#FF6B6B"/>
</svg>
